#!OML:ASF X:\für Bonn\!DataBase\2005_08_12_Daniel\c3d\Daniel.ASF
:FULLY-SPECIFIED
:DEGREES
1905
root 0.509556 16.5632 -1.18652 -1.82282 -54.3041 359.888
lowerback 14.9164 -2.39349 2.62094
upperback 2.79635 -2.75913 1.16638
thorax -5.45004 -1.42234 0.287197
lowerneck -8.98545 4.19 -1.74154
upperneck 7.44818 6.40312 -6.37414
head 4.25896 2.76862 -1.42156
rclavicle -6.4605e-015 -3.97569e-015
rhumerus -53.9379 2.71344 -96.9422
rradius 90.6503
rwrist -1.89298
rhand -24.8665 31.0641
rfingers 7.12502
rthumb 1.64048 1.09063
lclavicle -6.4605e-015 -3.97569e-015
lhumerus -62.0871 -7.11106 98.8907
lradius 91.1217
lwrist 5.88082
lhand -4.15816 -6.88991
lfingers 7.12502
lthumb 21.6021 21.9252
rfemur -7.93549 -1.2454 28.5561
rtibia 45.1965
rfoot -33.5872 2.03787
rtoes -1.67956
lfemur -20.8807 5.98444 -12.3068
ltibia 111.55
lfoot -5.01746 -9.46907
ltoes -2.93434
1906
root 0.260748 16.607 -0.986263 -2.0525 -54.5286 360.067
lowerback 14.97 -1.99037 2.50061
upperback 2.67632 -2.23722 1.19199
thorax -5.59192 -1.16459 0.284698
lowerneck -8.7466 4.04566 -1.76759
upperneck 7.45609 6.18245 -6.13538
head 4.19548 2.67689 -1.35484
rclavicle -3.47873e-014 9.54166e-015
rhumerus -53.0956 3.47655 -97.8915
rradius 92.0017
rwrist -1.87854
rhand -25.0085 31.0784
rfingers 7.12502
rthumb 1.50334 1.10398
lclavicle -3.47873e-014 9.54166e-015
lhumerus -63.3193 -6.9631 98.7769
lradius 91.0657
lwrist 6.16087
lhand -4.01705 -6.65974
lfingers 7.12502
lthumb 21.7376 22.1397
rfemur -5.66992 -0.586987 28.4793
rtibia 43.6443
rfoot -33.6082 1.68937
rtoes -1.21236
lfemur -23.1892 6.48888 -12.6597
ltibia 111.646
lfoot -5.21414 -9.19613
ltoes -3.34245
1907
root 0.00726578 16.6633 -0.7851 -2.47731 -54.7092 360.51
lowerback 14.9507 -1.61016 2.1637
upperback 2.55957 -1.78485 1.16847
thorax -5.68874 -0.936747 0.362576
lowerneck -8.54184 3.93376 -1.7397
upperneck 7.53806 6.00383 -5.87993
head 4.16873 2.60501 -1.28842
rclavicle -2.88238e-014 2.54444e-014
rhumerus -52.4287 4.58484 -98.8329
rradius 93.4162
rwrist -2.38458
rhand -25.0503 31.0634
rfingers 7.12502
rthumb 1.463 1.08865
lclavicle -2.88238e-014 2.54444e-014
lhumerus -64.5089 -6.7567 98.573
lradius 91.0749
lwrist 6.57164
lhand -3.63395 -6.87979
lfingers 7.12502
lthumb 22.1054 21.8766
rfemur -3.4417 0.172079 28.2858
rtibia 42.0897
rfoot -33.3552 1.19939
rtoes -0.80057
lfemur -25.3911 6.81981 -13.4051
ltibia 111.28
lfoot -5.22654 -8.63142
ltoes -3.51347
1908
root -0.251576 16.7297 -0.581556 -3.00134 -54.9025 361.099
lowerback 14.8373 -1.19355 1.71464
upperback 2.46359 -1.30701 1.11377
thorax -5.71433 -0.693826 0.463236
lowerneck -8.41685 3.83435 -1.77827
upperneck 7.69118 5.84501 -5.48631
head 4.17607 2.54419 -1.16069
rclavicle -3.90612e-014 2.98177e-014
rhumerus -51.8415 5.76185 -99.6479
rradius 94.7862
rwrist -3.26096
rhand -24.7763 31.1176
rfingers 7.12502
rthumb 1.72766 1.14484
lclavicle -3.90612e-014 2.98177e-014
lhumerus -65.6425 -6.68544 98.3591
lradius 91.0949
lwrist 7.07442
lhand -3.21689 -7.62413
lfingers 7.12502
lthumb 22.5058 21.0843
rfemur -1.27441 0.950699 28.0282
rtibia 40.5644
rfoot -32.7316 0.686439
rtoes -0.504188
lfemur -27.3571 6.98759 -14.3984
ltibia 110.453
lfoot -5.18594 -7.77705
ltoes -3.4036
1909
root -0.518936 16.8059 -0.37507 -3.71089 -55.034 361.937
lowerback 14.668 -0.767459 1.11653
upperback 2.32631 -0.842926 0.977831
thorax -5.75789 -0.454323 0.565989
lowerneck -8.3607 3.71091 -1.79807
upperneck 8.02215 5.6491 -4.93849
head 4.25599 2.46744 -0.985067
rclavicle -1.09928e-013 2.06736e-014
rhumerus -51.4105 6.96282 -100.399
rradius 96.1024
rwrist -4.39769
rhand -24.3071 31.147
rfingers 7.12502
rthumb 2.18077 1.17835
lclavicle -1.09928e-013 2.06736e-014
lhumerus -66.8629 -6.70119 98.0824
lradius 91.1315
lwrist 7.68439
lhand -2.70525 -8.45754
lfingers 7.12502
lthumb 22.9968 20.1906
rfemur 0.828564 1.73056 27.6603
rtibia 39.1088
rfoot -31.6865 0.0447412
rtoes -0.286487
lfemur -29.0963 6.96735 -15.6482
ltibia 109.187
lfoot -5.27991 -6.96764
ltoes -3.91696
1910
root -0.797578 16.8949 -0.164266 -4.47196 -55.1878 362.877
lowerback 14.4005 -0.331572 0.437793
upperback 2.17145 -0.377883 0.827537
thorax -5.77203 -0.211885 0.69984
lowerneck -8.25692 3.59944 -2.0328
upperneck 8.35615 5.47067 -4.19426
head 4.3148 2.40361 -0.704946
rclavicle -5.66536e-015 -2.0276e-014
rhumerus -51.1226 8.30253 -101.024
rradius 97.4189
rwrist -5.49353
rhand -23.7792 31.0743
rfingers 7.12502
rthumb 2.69056 1.11149
lclavicle -5.66536e-015 -2.0276e-014
lhumerus -68.099 -6.71067 97.7845
lradius 91.2236
lwrist 8.27969
lhand -2.17858 -9.29122
lfingers 7.12502
lthumb 23.5021 19.2931
rfemur 2.79444 2.60825 27.2692
rtibia 37.7211
rfoot -30.1869 -0.6259
rtoes -0.117614
lfemur -30.461 6.81537 -16.9825
ltibia 107.403
lfoot -5.58872 -6.01164
ltoes -5.13679
1911
root -1.08426 16.9943 0.0539868 -5.21656 -55.3054 363.848
lowerback 14.0357 0.0996496 -0.208297
upperback 2.00916 0.0857056 0.61463
thorax -5.74746 0.029424 0.751794
lowerneck -8.16198 3.45468 -2.26986
upperneck 8.74671 5.24113 -3.39851
head 4.3973 2.31598 -0.409686
rclavicle -1.2921e-014 1.63003e-014
rhumerus -51.0259 9.62993 -101.658
rradius 98.5337
rwrist -6.46524
rhand -23.2582 31.1642
rfingers 7.12502
rthumb 3.19371 1.20833
lclavicle -1.2921e-014 1.63003e-014
lhumerus -69.3427 -6.89136 97.4412
lradius 91.4538
lwrist 8.94441
lhand -1.73877 -9.70172
lfingers 7.12502
lthumb 23.9239 18.8279
rfemur 4.60715 3.55428 26.9018
rtibia 36.4542
rfoot -28.2935 -1.47008
rtoes -0.0953033
lfemur -31.5702 6.41436 -18.4119
ltibia 105.182
lfoot -5.81392 -4.79201
ltoes -5.92662
1912
root -1.37621 17.1029 0.274608 -5.923 -55.4166 364.83
lowerback 13.6617 0.504254 -0.857973
upperback 1.77256 0.518135 0.382047
thorax -5.80129 0.256963 0.794184
lowerneck -7.94615 3.31799 -2.65541
upperneck 9.1566 5.02063 -2.51162
head 4.4597 2.23331 -0.0586989
rclavicle 1.76918e-014 1.94809e-014
rhumerus -51.3524 10.9377 -102.296
rradius 99.4629
rwrist -7.09357
rhand -22.8176 31.5617
rfingers 7.12502
rthumb 3.61929 1.61268
lclavicle 1.76918e-014 1.94809e-014
lhumerus -70.7427 -7.07057 97.05
lradius 91.8755
lwrist 9.6684
lhand -1.32012 -9.7506
lfingers 7.12502
lthumb 24.3253 18.7258
rfemur 6.19219 4.5237 26.5571
rtibia 35.3467
rfoot -25.9948 -2.42538
rtoes -0.0413949
lfemur -32.4233 5.84489 -19.8347
ltibia 102.6
lfoot -6.02132 -3.594
ltoes -6.13134
1913
root -1.66955 17.2129 0.494979 -6.61369 -55.5083 365.812
lowerback 13.2559 0.913912 -1.45932
upperback 1.56702 0.963836 0.084297
thorax -5.80799 0.489249 0.741388
lowerneck -7.77308 3.16286 -2.97822
upperneck 9.52334 4.76478 -1.64681
head 4.5234 2.13505 0.273366
rclavicle -2.38542e-015 -5.96354e-015
rhumerus -51.8455 12.0214 -102.916
rradius 100.343
rwrist -7.3766
rhand -22.3999 32.1366
rfingers 7.12502
rthumb 4.02264 2.19486
lclavicle -2.38542e-015 -5.96354e-015
lhumerus -72.0736 -7.42662 96.5605
lradius 92.4533
lwrist 10.4638
lhand -0.961034 -9.37507
lfingers 7.12502
lthumb 24.6696 19.0547
rfemur 7.53934 5.17972 26.0851
rtibia 34.4672
rfoot -23.3833 -3.1964
rtoes -0.325906
lfemur -33.1034 5.12526 -21.2079
ltibia 99.7577
lfoot -6.13957 -2.52759
ltoes -5.94228
1914
root -1.96095 17.3197 0.715974 -7.16561 -55.645 366.694
lowerback 12.8649 1.29935 -1.98731
upperback 1.29914 1.39181 -0.210742
thorax -5.8902 0.712692 0.655275
lowerneck -7.59803 3.02695 -3.31099
upperneck 9.91724 4.54078 -0.876952
head 4.60431 2.04606 0.579191
rclavicle -5.2181e-015 -3.18055e-015
rhumerus -52.5205 13.064 -103.555
rradius 101.368
rwrist -7.25939
rhand -21.9652 32.4757
rfingers 7.12502
rthumb 4.44237 2.54227
lclavicle -5.2181e-015 -3.18055e-015
lhumerus -73.205 -7.68644 96.02
lradius 92.9326
lwrist 11.2363
lhand -0.693026 -8.69198
lfingers 7.12502
lthumb 24.9264 19.7025
rfemur 8.60316 5.73017 25.6153
rtibia 33.8427
rfoot -20.483 -4.00797
rtoes -1.07638
lfemur -33.704 4.46795 -22.4206
ltibia 96.731
lfoot -6.18453 -1.61136
ltoes -5.75693
1915
root -2.25085 17.4291 0.939322 -7.5859 -55.8145 367.452
lowerback 12.4007 1.69949 -2.38292
upperback 1.07546 1.86122 -0.529108
thorax -5.88341 0.952122 0.467817
lowerneck -7.42563 2.849 -3.57659
upperneck 10.2234 4.2586 -0.222077
head 4.66376 1.92669 0.83142
rclavicle -3.47376e-014 6.75868e-015
rhumerus -53.2796 14.0446 -104.15
rradius 102.534
rwrist -6.94007
rhand -21.6082 32.6507
rfingers 7.12502
rthumb 4.78708 2.72479
lclavicle -3.47376e-014 6.75868e-015
lhumerus -74.075 -8.02854 95.3954
lradius 93.3816
lwrist 11.881
lhand -0.438034 -7.93208
lfingers 7.12502
lthumb 25.1707 20.4283
rfemur 9.37658 6.09759 25.0932
rtibia 33.4769
rfoot -17.3618 -4.64244
rtoes -1.90474
lfemur -34.1387 3.81723 -23.484
ltibia 93.4459
lfoot -6.31737 -0.900335
ltoes -5.66612
